<svg enable-background="new 0 0 85 111" viewBox="0 0 85 111" xmlns="http://www.w3.org/2000/svg" xmlns:xlink="http://www.w3.org/1999/xlink"><mask id="a" height="18" maskUnits="userSpaceOnUse" width="10.5" x=".1" y="0"><path d="m10.6 18h-10.5v-18h10.5z" fill="#fff"/></mask><g transform=""><g transform="translate(0 90)"><g fill="#ffb000"><path d="m6.5 17.2-3.6-5.2v7.6c0 .6-.4 1-1 1h-.9c-.6 0-1-.4-1-1v-17.2c0-.6.4-1 1-1h.9c.6 0 1 .4 1 1v8.3l6.1-8.7c.3-.5.7-.6 1.2-.6h1.5c.6 0 .7.5.3 1.1l-6.4 8.8 3.5 4.8c.8 1.2 1.8 2.3 2.9 2.3.3 0 .7 0 1.1-.2.6-.2 1-.1 1.3.4l.2.3c.3.5.2 1.1-.4 1.4-.8.4-1.8.6-2.5.6-2.8 0-4.3-2.2-5.2-3.7"/><path d="m27.1 13.7c0-2.7-1.8-4.7-4.5-4.7s-4.3 2.2-4.3 4.7c0 2.6 1.6 4.7 4.3 4.7 2.7.1 4.5-1.9 4.5-4.7m-11.6 0c0-4 2.7-7.2 6.7-7.2 1.8 0 3.6.6 4.8 2.5v-1.1c0-.6.4-1 1-1h.8c.6 0 1 .4 1 1v11.8c0 .6-.4 1-1 1h-.8c-.6 0-1-.4-1-1v-1.2c-1.3 1.8-3 2.5-4.8 2.5-4-.1-6.7-3.3-6.7-7.3"/><path d="m32.4 19.6v-11.7c0-.6.4-1 1-1h.8c.6 0 1 .4 1 1v2.1c.5-2.2 2-3.4 3.6-3.4h.6c.6.1.6.5.6 1.1v.8c0 .7-.3 1-.7.9-.2-.1-.5-.1-.7-.1-1 0-3.4.5-3.4 6.1v4.3c0 .6-.4 1-1 1h-.8c-.6-.1-1-.4-1-1.1"/><path d="m42.1 19.6v-11.7c0-.6.4-1 1-1h.8c.6 0 1 .4 1 1v11.8c0 .6-.4 1-1 1h-.8c-.6-.1-1-.4-1-1.1m-.5-17.1c0-1.1.8-1.9 1.9-1.9s1.9.9 1.9 1.9-.8 1.9-1.9 1.9-1.9-.8-1.9-1.9"/><path d="m47.7 18.3c-.3-.6 0-1.1.6-1.2l.6-.2c.5-.1.9.1 1.2.6.5.7 1.5 1.1 2.5 1.1 1.3 0 2.3-.8 2.3-1.8 0-.9-.7-1.3-1.7-1.7l-1.8-.6c-2.1-.6-3.4-1.8-3.4-3.8 0-2.4 1.8-4.1 4.5-4.1 1.6 0 3.2.6 4.1 2.3.4.6 0 1.1-.6 1.3l-.5.1c-.6.2-.9-.1-1.3-.6-.5-.5-1.1-.7-1.6-.7-1.2 0-1.9.7-1.9 1.7 0 .9.8 1.3 1.6 1.6l1.9.7c2.6.8 3.3 2.4 3.3 3.9 0 2.6-2.3 4.1-4.9 4.1-2-.1-4-1-4.9-2.7"/></g><path d="m2.3 13.4v-7.2h-1.7c-.3 0-.5-.2-.5-.6v-1.1c0-.3.2-.5.5-.5h1.7l.5-3.2c.1-.5.4-.8.9-.8h.6c.5 0 .8.3.8.9v3.1h3.7c.4 0 .5.2.5.5v1.1c0 .4-.2.6-.5.6h-3.7v7.4c0 1.5.7 2.1 1.6 2.1.8 0 1.6-.5 1.6-1.5 0-.1 0-.3-.1-.5-.1-.5.1-.7.5-.7h1.2c.3 0 .6.1.6.5.1.5.1 1 .1 1 0 2.1-1.5 3.6-4.1 3.6-2.1-.1-4.2-1.2-4.2-4.7" fill="#ff9f00" mask="url(#a)" transform="translate(58.781095 2.890542)"/><path d="m82.2 13.7c0-2.7-1.8-4.7-4.5-4.7s-4.3 2.2-4.3 4.7c0 2.6 1.6 4.7 4.3 4.7 2.7.1 4.5-1.9 4.5-4.7m-11.6 0c0-4 2.7-7.2 6.7-7.2 1.8 0 3.6.6 4.8 2.5v-1.1c0-.6.4-1 1-1h.9c.6 0 1 .4 1 1v11.8c0 .6-.4 1-1 1h-.8c-.6 0-1-.4-1-1v-1.2c-1.3 1.8-3 2.5-4.8 2.5-4.1-.1-6.8-3.3-6.8-7.3" fill="#ffb000"/></g><path d="m33.9.1c-.8.1-1.6.4-2.3.8.8-.5 1.6-.7 2.3-.8m17.2 46.9s1.2-.8 1.8-1.1c25.2-15.8 13-31.3 1.6-22-4 3.2-7.5 5.7-10.7 7.4-13 7.1-18.6 1.9-19.7-6.9.5 2.6 1.5 5.2 3.6 6.8s4.9 1.9 7.5 1.4 4.6-.9 6.8-2.7c-1.4-4.6 0-9.8.7-14.6.4-2.4.6-4.9.3-7.3s-1.4-4.8-3.3-6.4c-1.3-1-2.9-1.6-4.5-1.7-.2 0-.4 0-.6 0-6.5-.3-15 7.7-18.3 29.3-4.1 26.5 3.4 40.2 5.5 43.7 0 0-.4-4.8 16.8-17.4-16.4 13.6-13.6 21.4-13 22.5.1.2.2.3.2.3s0 0-.1-.1c2.6 4.2 10.7 8 13.2.9 2.5-7.2 3.7-8.7 6.9-9.2 1.4-.2 2.9.6 4.1 1.3 1.6.9 8.4 8.2 14.7 9.5 1.7.4 3.5-.1 5-1.2.5-.4.9-.8 1.3-1.3 6.3-9.2-16.4-22.4-19.8-31.2" fill="#ffb000"/></g></svg>