<?xml version="1.0" encoding="utf-8"?>
<!-- Generator: Adobe Illustrator 22.0.1, SVG Export Plug-In . SVG Version: 6.00 Build 0)  -->
<svg version="1.1" id="Layer_1" xmlns="http://www.w3.org/2000/svg" xmlns:xlink="http://www.w3.org/1999/xlink" x="0px" y="0px"
	 viewBox="0 0 85 111" style="enable-background:new 0 0 85 111;" xml:space="preserve">
<style type="text/css">
	.st0{fill:#FFB000;}
	.st1{filter:url(#Adobe_OpacityMaskFilter);}
	.st2{fill:#FFFFFF;}
	.st3{mask:url(#mask-2_1_);fill:#FF9F00;}
</style>
<title>Karista Registered Tradmark Logo</title>
<desc>Karista Registered Tradmark Homepage Logo</desc>
<g id="landing-page_MOBILE" transform="translate(-145.000000, -90.000000)">
	<g id="Group-2-Copy-3" transform="translate(145.000000, 90.000000)">
		<g id="type" transform="translate(0.000000, 90.000000)">
			<path id="Fill-1" class="st0" d="M6.5,17.2l-3.6-5.2v7.6c0,0.6-0.4,1-1,1H1c-0.6,0-1-0.4-1-1V2.4c0-0.6,0.4-1,1-1h0.9
				c0.6,0,1,0.4,1,1v8.3L9,2c0.3-0.5,0.7-0.6,1.2-0.6h1.5c0.6,0,0.7,0.5,0.3,1.1l-6.4,8.8l3.5,4.8c0.8,1.2,1.8,2.3,2.9,2.3
				c0.3,0,0.7,0,1.1-0.2c0.6-0.2,1-0.1,1.3,0.4l0.2,0.3c0.3,0.5,0.2,1.1-0.4,1.4c-0.8,0.4-1.8,0.6-2.5,0.6
				C8.9,20.9,7.4,18.7,6.5,17.2"/>
			<path id="Fill-3" class="st0" d="M27.1,13.7c0-2.7-1.8-4.7-4.5-4.7c-2.7,0-4.3,2.2-4.3,4.7c0,2.6,1.6,4.7,4.3,4.7
				C25.3,18.5,27.1,16.5,27.1,13.7 M15.5,13.7c0-4,2.7-7.2,6.7-7.2c1.8,0,3.6,0.6,4.8,2.5V7.9c0-0.6,0.4-1,1-1h0.8c0.6,0,1,0.4,1,1
				v11.8c0,0.6-0.4,1-1,1h-0.8c-0.6,0-1-0.4-1-1v-1.2c-1.3,1.8-3,2.5-4.8,2.5C18.2,20.9,15.5,17.7,15.5,13.7"/>
			<path id="Fill-5" class="st0" d="M32.4,19.6V7.9c0-0.6,0.4-1,1-1h0.8c0.6,0,1,0.4,1,1v2.1c0.5-2.2,2-3.4,3.6-3.4l0.6,0
				c0.6,0.1,0.6,0.5,0.6,1.1v0.8c0,0.7-0.3,1-0.7,0.9c-0.2-0.1-0.5-0.1-0.7-0.1c-1,0-3.4,0.5-3.4,6.1v4.3c0,0.6-0.4,1-1,1h-0.8
				C32.8,20.6,32.4,20.3,32.4,19.6"/>
			<path id="Fill-7" class="st0" d="M42.1,19.6V7.9c0-0.6,0.4-1,1-1h0.8c0.6,0,1,0.4,1,1v11.8c0,0.6-0.4,1-1,1h-0.8
				C42.5,20.6,42.1,20.3,42.1,19.6 M41.6,2.5c0-1.1,0.8-1.9,1.9-1.9c1.1,0,1.9,0.9,1.9,1.9c0,1-0.8,1.9-1.9,1.9
				C42.4,4.4,41.6,3.6,41.6,2.5"/>
			<path id="Fill-9" class="st0" d="M47.7,18.3c-0.3-0.6,0-1.1,0.6-1.2l0.6-0.2c0.5-0.1,0.9,0.1,1.2,0.6c0.5,0.7,1.5,1.1,2.5,1.1
				c1.3,0,2.3-0.8,2.3-1.8c0-0.9-0.7-1.3-1.7-1.7l-1.8-0.6c-2.1-0.6-3.4-1.8-3.4-3.8c0-2.4,1.8-4.1,4.5-4.1c1.6,0,3.2,0.6,4.1,2.3
				c0.4,0.6,0,1.1-0.6,1.3l-0.5,0.1c-0.6,0.2-0.9-0.1-1.3-0.6c-0.5-0.5-1.1-0.7-1.6-0.7c-1.2,0-1.9,0.7-1.9,1.7
				c0,0.9,0.8,1.3,1.6,1.6l1.9,0.7c2.6,0.8,3.3,2.4,3.3,3.9c0,2.6-2.3,4.1-4.9,4.1C50.6,20.9,48.6,20,47.7,18.3"/>
			<g id="Group-13" transform="translate(58.781095, 2.890542)">
				<g id="Clip-12">
				</g>
				<defs>
					<filter id="Adobe_OpacityMaskFilter" filterUnits="userSpaceOnUse" x="0.1" y="0" width="10.5" height="18">
						<feColorMatrix  type="matrix" values="1 0 0 0 0  0 1 0 0 0  0 0 1 0 0  0 0 0 1 0"/>
					</filter>
				</defs>
				<mask maskUnits="userSpaceOnUse" x="0.1" y="0" width="10.5" height="18" id="mask-2_1_">
					<g class="st1">
						<polygon id="path-1_1_" class="st2" points="10.6,18 0.1,18 0.1,0 10.6,0 						"/>
					</g>
				</mask>
				<path id="Fill-11" class="st3" d="M2.3,13.4V6.2H0.6C0.3,6.2,0.1,6,0.1,5.6V4.5C0.1,4.2,0.3,4,0.6,4h1.7l0.5-3.2
					C2.9,0.3,3.2,0,3.7,0h0.6c0.5,0,0.8,0.3,0.8,0.9V4h3.7c0.4,0,0.5,0.2,0.5,0.5v1.1c0,0.4-0.2,0.6-0.5,0.6H5.1v7.4
					c0,1.5,0.7,2.1,1.6,2.1c0.8,0,1.6-0.5,1.6-1.5c0-0.1,0-0.3-0.1-0.5C8.1,13.2,8.3,13,8.7,13h1.2c0.3,0,0.6,0.1,0.6,0.5
					c0.1,0.5,0.1,1,0.1,1c0,2.1-1.5,3.6-4.1,3.6C4.4,18,2.3,16.9,2.3,13.4"/>
			</g>
			<path id="Fill-14" class="st0" d="M82.2,13.7c0-2.7-1.8-4.7-4.5-4.7c-2.7,0-4.3,2.2-4.3,4.7c0,2.6,1.6,4.7,4.3,4.7
				C80.4,18.5,82.2,16.5,82.2,13.7 M70.6,13.7c0-4,2.7-7.2,6.7-7.2c1.8,0,3.6,0.6,4.8,2.5V7.9c0-0.6,0.4-1,1-1H84c0.6,0,1,0.4,1,1
				v11.8c0,0.6-0.4,1-1,1h-0.8c-0.6,0-1-0.4-1-1v-1.2c-1.3,1.8-3,2.5-4.8,2.5C73.3,20.9,70.6,17.7,70.6,13.7"/>
		</g>
		<path id="logo" class="st0" d="M33.9,0.1c-0.8,0.1-1.6,0.4-2.3,0.8C32.4,0.4,33.2,0.2,33.9,0.1 M51.1,47c0,0,1.2-0.8,1.8-1.1
			c25.2-15.8,13-31.3,1.6-22c-4,3.2-7.5,5.7-10.7,7.4c-13,7.1-18.6,1.9-19.7-6.9c0.5,2.6,1.5,5.2,3.6,6.8c2.1,1.6,4.9,1.9,7.5,1.4
			c2.6-0.5,4.6-0.9,6.8-2.7c-1.4-4.6,0-9.8,0.7-14.6c0.4-2.4,0.6-4.9,0.3-7.3c-0.3-2.4-1.4-4.8-3.3-6.4c-1.3-1-2.9-1.6-4.5-1.7
			c-0.2,0-0.4,0-0.6,0c-6.5-0.3-15,7.7-18.3,29.3c-4.1,26.5,3.4,40.2,5.5,43.7c0,0-0.4-4.8,16.8-17.4C22.2,69.1,25,76.9,25.6,78
			c0.1,0.2,0.2,0.3,0.2,0.3s0,0-0.1-0.1c2.6,4.2,10.7,8,13.2,0.9c2.5-7.2,3.7-8.7,6.9-9.2c1.4-0.2,2.9,0.6,4.1,1.3
			c1.6,0.9,8.4,8.2,14.7,9.5c1.7,0.4,3.5-0.1,5-1.2c0.5-0.4,0.9-0.8,1.3-1.3C77.2,69,54.5,55.8,51.1,47"/>
	</g>
</g>
</svg>
